<svg width="82" height="82" viewBox="0 0 82.0002 82.0002" fill="none" xmlns="http://www.w3.org/2000/svg">
<circle cx="41.0001" cy="41.0001" r="41.0001" fill="#19110B"/>
<path d="M35.3495 25.8006C35.3495 26.0204 35.1815 26.1988 34.9752 26.1988H33.7997C32.8783 26.1988 32.2077 26.3987 31.7896 26.7993C31.3707 27.1999 31.1612 27.9342 31.1612 29.0021V35.4563C31.1612 35.6641 31.154 35.8792 31.1405 36.1014C31.1262 36.3236 31.1055 36.5394 31.0776 36.7464C30.9374 37.7555 30.5958 38.579 30.051 39.2169C29.5063 39.8556 28.8994 40.3375 28.2288 40.6632C27.8792 40.8336 27.5033 40.9921 27.1003 41.1379C26.7642 41.2597 26.7594 41.7638 27.0939 41.8889C27.563 42.0649 27.9899 42.2568 28.3754 42.4655C29.0595 42.8366 29.6663 43.363 30.1976 44.0456C30.7256 44.7257 31.0322 45.6105 31.1182 46.7008C31.1182 46.7104 31.1206 46.7207 31.1222 46.7303C31.1477 46.8744 31.1612 47.0257 31.1612 47.1834V54.0158C31.1612 55.0838 31.3707 55.8253 31.7896 56.241C32.2085 56.656 32.8783 56.8638 33.7997 56.8638H34.9752C35.1823 56.8638 35.3495 57.0422 35.3495 57.262V61.2736C35.3495 61.4934 35.1815 61.6718 34.9752 61.6718H31.831C30.2947 61.6718 29.0666 61.4416 28.1452 60.9821C27.2238 60.5217 26.5675 59.8169 26.1765 58.8676C25.7854 57.9175 25.5903 56.6711 25.5903 55.1284V47.6063C25.5903 47.5052 25.58 47.4136 25.5592 47.3332C25.5529 47.3069 25.5473 47.2806 25.5457 47.2535C25.4868 46.3838 25.3203 45.7379 25.0456 45.3135C24.766 44.8834 24.375 44.572 23.8724 44.3785C23.4511 44.2168 22.9422 44.1228 22.3457 44.0965C22.1458 44.0878 21.9881 43.9118 21.9881 43.6991V39.4065C21.9881 39.1922 22.1482 39.0154 22.3505 39.0091C22.9661 38.9891 23.4742 38.9175 23.8732 38.7924C24.3479 38.6443 24.7318 38.3775 25.0249 37.9912C25.3148 37.6098 25.4884 37.0395 25.5465 36.2805C25.5481 36.2638 25.5505 36.2471 25.5537 36.2312C25.5776 36.1213 25.5903 36.0106 25.5903 35.8991V27.9318C25.5903 26.3891 25.7854 25.1427 26.1765 24.1926C26.5675 23.2433 27.2238 22.5385 28.1452 22.0781C29.0666 21.6186 30.2955 21.3884 31.831 21.3884H34.9752C35.1823 21.3884 35.3495 21.5668 35.3495 21.7866V25.7982V25.8006ZM43.4929 47.1261C43.4929 48.3796 42.5364 49.3959 41.3569 49.3959H41.145C39.9655 49.3959 39.0091 48.3796 39.0091 47.1261C39.0091 45.8725 39.9655 44.8563 41.145 44.8563H41.3569C42.5364 44.8563 43.4929 45.8725 43.4929 47.1261ZM43.4929 37.2307C43.4929 38.4842 42.5364 39.5004 41.3569 39.5004H41.145C39.9655 39.5004 39.0091 38.4842 39.0091 37.2307C39.0091 35.9771 39.9655 34.9609 41.145 34.9609H41.3569C42.5364 34.9609 43.4929 35.9771 43.4929 37.2307ZM60.5138 43.6569C60.5138 43.8704 60.3545 44.0456 60.1538 44.0519C59.5366 44.0718 59.0285 44.1443 58.6287 44.2686C58.1532 44.4175 57.7701 44.6843 57.4771 45.0697C57.1872 45.4512 57.0127 46.0215 56.9554 46.7796C56.9538 46.7964 56.9514 46.8139 56.9482 46.8298C56.9235 46.9405 56.9124 47.0512 56.9124 47.1611V55.1284C56.9124 56.6711 56.7165 57.9175 56.3262 58.8676C55.9352 59.8169 55.279 60.5217 54.3575 60.9821C53.4361 61.4416 52.2072 61.6718 50.6717 61.6718H47.5259C47.3204 61.6718 47.1532 61.4942 47.1532 61.2759V57.2604C47.1532 57.0422 47.3196 56.8646 47.5259 56.8646H48.703C49.6244 56.8646 50.295 56.6647 50.7131 56.2641C51.132 55.8635 51.3415 55.1292 51.3415 54.0612V47.6071C51.3415 47.4001 51.3479 47.1842 51.3622 46.962C51.3757 46.7398 51.3972 46.5248 51.4251 46.3169C51.5645 45.3087 51.9069 44.4852 52.4517 43.8465C52.9964 43.2085 53.6033 42.7267 54.2739 42.4002C54.6251 42.229 55.0026 42.0705 55.408 41.9239C55.7425 41.8029 55.7472 41.3011 55.4143 41.1769C54.9429 41.0009 54.5144 40.8074 54.1281 40.5979C53.4432 40.2276 52.8364 39.7011 52.306 39.0178C51.7779 38.3393 51.4713 37.4545 51.3861 36.3642C51.3853 36.353 51.3837 36.3419 51.3821 36.3315C51.3558 36.1882 51.3431 36.0376 51.3431 35.8808V29.0483C51.3431 27.9803 51.1336 27.2389 50.7147 26.8232C50.2958 26.4082 49.626 26.2004 48.7046 26.2004H47.5275C47.322 26.2004 47.1548 26.0228 47.1548 25.8045V21.789C47.1548 21.5708 47.3212 21.3932 47.5275 21.3932H50.6733C52.2088 21.3932 53.4377 21.6234 54.3591 22.0829C55.2805 22.5432 55.936 23.2481 56.3278 24.1974C56.7189 25.1475 56.914 26.3939 56.914 27.9365V35.4587C56.914 35.5606 56.9243 35.6514 56.9443 35.731C56.9514 35.7573 56.9562 35.7844 56.9586 35.8123C57.0167 36.6811 57.1832 37.3278 57.4587 37.7507C57.7375 38.1816 58.1285 38.493 58.6319 38.6857C59.0532 38.8482 59.5629 38.9414 60.161 38.9676C60.3601 38.9764 60.517 39.1508 60.517 39.3627V43.6593L60.5138 43.6569Z" fill="#FFFFFF"/>
</svg>
